# Blender v2.77 (sub 0) OBJ File: 'heart.blend'
# www.blender.org
mtllib heart.mtl
o Cube_Cube.001
v -0.362332 -0.929615 0.023592
v -1.000000 0.729946 0.611352
v -1.000000 0.731015 -0.547492
v -1.000000 0.066737 0.424463
v -1.527081 0.585873 0.023592
v -1.000000 0.066737 -0.333919
v -1.259927 0.000000 0.023592
v -0.469497 0.810939 0.732343
v -0.469497 0.796366 -0.686325
v -0.668151 1.339189 0.023592
v -0.469497 0.066737 -0.612920
v -0.469497 0.066737 0.695775
v 0.362332 -0.929615 0.023592
v 1.000000 0.729946 0.611352
v 1.000000 0.731015 -0.547492
v -0.000000 0.782696 0.523227
v 1.000000 0.066737 0.424463
v -0.000000 -1.279554 0.023592
v 1.527081 0.585873 0.023592
v 1.000000 0.066737 -0.333919
v 0.000000 0.796366 -0.473515
v -0.000000 1.000000 0.023592
v 0.000000 0.000000 -0.612920
v 1.259927 0.000000 0.023592
v -0.000000 0.000000 0.695775
v 0.469497 0.810939 0.732343
v 0.469497 0.796366 -0.686325
v 0.668151 1.339189 0.023592
v 0.469497 0.066737 -0.612920
v 0.469497 0.066737 0.695775
vn -0.1814 -0.2722 0.9449
vn -0.5636 -0.3884 0.7290
vn -0.5214 -0.8532 -0.0146
vn -0.8580 -0.5133 -0.0188
vn -0.5541 -0.3905 -0.7351
vn 0.0000 1.0000 -0.0020
vn -0.0060 0.4138 -0.9103
vn -0.1031 0.9946 -0.0055
vn -0.9876 0.1564 -0.0110
vn -0.5564 0.2882 0.7793
vn -0.5552 0.2777 -0.7840
vn 0.0067 0.4463 0.8948
vn -0.1874 -0.2852 -0.9399
vn 0.0000 -0.2594 -0.9658
vn 0.0000 -1.0000 -0.0056
vn 0.0000 0.6454 -0.7638
vn 0.0000 0.6378 0.7702
vn 0.0000 -0.2513 0.9679
vn 0.1814 -0.2722 0.9449
vn 0.5214 -0.8532 -0.0146
vn 0.5636 -0.3884 0.7290
vn 0.8580 -0.5133 -0.0188
vn 0.5541 -0.3905 -0.7351
vn 0.1031 0.9946 -0.0055
vn 0.0060 0.4138 -0.9103
vn 0.5564 0.2882 0.7793
vn 0.9876 0.1564 -0.0110
vn 0.5552 0.2777 -0.7840
vn -0.0067 0.4463 0.8948
vn 0.1874 -0.2852 -0.9399
usemtl Material.001
s 1
f 12//1 4//2 1//3
f 7//4 6//5 1//3
f 22//6 9//7 10//8
f 10//8 5//9 2//10
f 9//7 3//11 10//8
f 2//10 8//12 10//8
f 11//13 23//14 18//15 1//3
f 9//7 21//16 23//14 11//13
f 4//2 7//4 1//3
f 2//10 5//9 7//4 4//2
f 5//9 3//11 6//5 7//4
f 8//12 2//10 4//2 12//1
f 16//17 8//12 12//1 25//18
f 3//11 9//7 11//13 6//5
f 6//5 11//13 1//3
f 21//16 9//7 22//6
f 22//6 8//12 16//17
f 10//8 3//11 5//9
f 25//18 12//1 1//3 18//15
f 8//12 22//6 10//8
f 30//19 13//20 17//21
f 24//22 13//20 20//23
f 22//6 28//24 27//25
f 28//24 14//26 19//27
f 27//25 28//24 15//28
f 14//26 28//24 26//29
f 29//30 13//20 18//15 23//14
f 27//25 29//30 23//14 21//16
f 17//21 13//20 24//22
f 14//26 17//21 24//22 19//27
f 19//27 24//22 20//23 15//28
f 26//29 30//19 17//21 14//26
f 16//17 25//18 30//19 26//29
f 15//28 20//23 29//30 27//25
f 20//23 13//20 29//30
f 21//16 22//6 27//25
f 22//6 16//17 26//29
f 28//24 19//27 15//28
f 25//18 18//15 13//20 30//19
f 26//29 28//24 22//6
